<mxfile host="app.diagrams.net" agent="Mozilla/5.0 (Windows NT 10.0; Win64; x64) AppleWebKit/537.36 (KHTML, like Gecko) Chrome/128.0.0.0 Safari/537.36" version="24.7.14">
  <diagram name="Page-1" id="KZ5x16-3F1P-mmqFhxNt">
    <mxGraphModel dx="1221" dy="665" grid="1" gridSize="10" guides="1" tooltips="1" connect="1" arrows="1" fold="1" page="1" pageScale="1" pageWidth="827" pageHeight="1169" math="0" shadow="0">
      <root>
        <mxCell id="0" />
        <mxCell id="1" parent="0" />
        <mxCell id="OjmmLSmr8yP9Vfqz_fl--2" value="Table" style="swimlane;fontStyle=2;align=center;verticalAlign=top;childLayout=stackLayout;horizontal=1;startSize=26;horizontalStack=0;resizeParent=1;resizeLast=0;collapsible=1;marginBottom=0;rounded=0;shadow=0;strokeWidth=1;" parent="1" vertex="1">
          <mxGeometry x="209" y="30" width="160" height="268" as="geometry">
            <mxRectangle x="230" y="140" width="160" height="26" as="alternateBounds" />
          </mxGeometry>
        </mxCell>
        <mxCell id="OjmmLSmr8yP9Vfqz_fl--3" value="name: string" style="text;align=left;verticalAlign=top;spacingLeft=4;spacingRight=4;overflow=hidden;rotatable=0;points=[[0,0.5],[1,0.5]];portConstraint=eastwest;" parent="OjmmLSmr8yP9Vfqz_fl--2" vertex="1">
          <mxGeometry y="26" width="160" height="26" as="geometry" />
        </mxCell>
        <mxCell id="OjmmLSmr8yP9Vfqz_fl--4" value="columns: Column[]" style="text;align=left;verticalAlign=top;spacingLeft=4;spacingRight=4;overflow=hidden;rotatable=0;points=[[0,0.5],[1,0.5]];portConstraint=eastwest;rounded=0;shadow=0;html=0;" parent="OjmmLSmr8yP9Vfqz_fl--2" vertex="1">
          <mxGeometry y="52" width="160" height="26" as="geometry" />
        </mxCell>
        <mxCell id="OjmmLSmr8yP9Vfqz_fl--5" value="data:Â Record[]" style="text;align=left;verticalAlign=top;spacingLeft=4;spacingRight=4;overflow=hidden;rotatable=0;points=[[0,0.5],[1,0.5]];portConstraint=eastwest;rounded=0;shadow=0;html=0;" parent="OjmmLSmr8yP9Vfqz_fl--2" vertex="1">
          <mxGeometry y="78" width="160" height="26" as="geometry" />
        </mxCell>
        <mxCell id="OjmmLSmr8yP9Vfqz_fl--6" value="" style="line;html=1;strokeWidth=1;align=left;verticalAlign=middle;spacingTop=-1;spacingLeft=3;spacingRight=3;rotatable=0;labelPosition=right;points=[];portConstraint=eastwest;" parent="OjmmLSmr8yP9Vfqz_fl--2" vertex="1">
          <mxGeometry y="104" width="160" height="8" as="geometry" />
        </mxCell>
        <mxCell id="OjmmLSmr8yP9Vfqz_fl--7" value="createTable()" style="text;align=left;verticalAlign=top;spacingLeft=4;spacingRight=4;overflow=hidden;rotatable=0;points=[[0,0.5],[1,0.5]];portConstraint=eastwest;" parent="OjmmLSmr8yP9Vfqz_fl--2" vertex="1">
          <mxGeometry y="112" width="160" height="26" as="geometry" />
        </mxCell>
        <mxCell id="OjmmLSmr8yP9Vfqz_fl--8" value="deleteTable()" style="text;align=left;verticalAlign=top;spacingLeft=4;spacingRight=4;overflow=hidden;rotatable=0;points=[[0,0.5],[1,0.5]];portConstraint=eastwest;" parent="OjmmLSmr8yP9Vfqz_fl--2" vertex="1">
          <mxGeometry y="138" width="160" height="26" as="geometry" />
        </mxCell>
        <mxCell id="OjmmLSmr8yP9Vfqz_fl--9" value="addRecord()" style="text;align=left;verticalAlign=top;spacingLeft=4;spacingRight=4;overflow=hidden;rotatable=0;points=[[0,0.5],[1,0.5]];portConstraint=eastwest;" parent="OjmmLSmr8yP9Vfqz_fl--2" vertex="1">
          <mxGeometry y="164" width="160" height="26" as="geometry" />
        </mxCell>
        <mxCell id="OjmmLSmr8yP9Vfqz_fl--10" value="deleteRecord()" style="text;align=left;verticalAlign=top;spacingLeft=4;spacingRight=4;overflow=hidden;rotatable=0;points=[[0,0.5],[1,0.5]];portConstraint=eastwest;" parent="OjmmLSmr8yP9Vfqz_fl--2" vertex="1">
          <mxGeometry y="190" width="160" height="26" as="geometry" />
        </mxCell>
        <mxCell id="OjmmLSmr8yP9Vfqz_fl--11" value="editRecord()" style="text;align=left;verticalAlign=top;spacingLeft=4;spacingRight=4;overflow=hidden;rotatable=0;points=[[0,0.5],[1,0.5]];portConstraint=eastwest;" parent="OjmmLSmr8yP9Vfqz_fl--2" vertex="1">
          <mxGeometry y="216" width="160" height="26" as="geometry" />
        </mxCell>
        <mxCell id="OjmmLSmr8yP9Vfqz_fl--12" value="Database" style="swimlane;fontStyle=0;align=center;verticalAlign=top;childLayout=stackLayout;horizontal=1;startSize=26;horizontalStack=0;resizeParent=1;resizeLast=0;collapsible=1;marginBottom=0;rounded=0;shadow=0;strokeWidth=1;" parent="1" vertex="1">
          <mxGeometry x="80" y="360" width="179" height="240" as="geometry">
            <mxRectangle x="130" y="380" width="160" height="26" as="alternateBounds" />
          </mxGeometry>
        </mxCell>
        <mxCell id="OjmmLSmr8yP9Vfqz_fl--13" value="name: string" style="text;align=left;verticalAlign=top;spacingLeft=4;spacingRight=4;overflow=hidden;rotatable=0;points=[[0,0.5],[1,0.5]];portConstraint=eastwest;" parent="OjmmLSmr8yP9Vfqz_fl--12" vertex="1">
          <mxGeometry y="26" width="179" height="26" as="geometry" />
        </mxCell>
        <mxCell id="OjmmLSmr8yP9Vfqz_fl--14" value="tables: Table[]" style="text;align=left;verticalAlign=top;spacingLeft=4;spacingRight=4;overflow=hidden;rotatable=0;points=[[0,0.5],[1,0.5]];portConstraint=eastwest;rounded=0;shadow=0;html=0;" parent="OjmmLSmr8yP9Vfqz_fl--12" vertex="1">
          <mxGeometry y="52" width="179" height="26" as="geometry" />
        </mxCell>
        <mxCell id="OjmmLSmr8yP9Vfqz_fl--15" value="" style="line;html=1;strokeWidth=1;align=left;verticalAlign=middle;spacingTop=-1;spacingLeft=3;spacingRight=3;rotatable=0;labelPosition=right;points=[];portConstraint=eastwest;" parent="OjmmLSmr8yP9Vfqz_fl--12" vertex="1">
          <mxGeometry y="78" width="179" height="8" as="geometry" />
        </mxCell>
        <mxCell id="OjmmLSmr8yP9Vfqz_fl--16" value="deleteDatabase()" style="text;align=left;verticalAlign=top;spacingLeft=4;spacingRight=4;overflow=hidden;rotatable=0;points=[[0,0.5],[1,0.5]];portConstraint=eastwest;" parent="OjmmLSmr8yP9Vfqz_fl--12" vertex="1">
          <mxGeometry y="86" width="179" height="26" as="geometry" />
        </mxCell>
        <mxCell id="OjmmLSmr8yP9Vfqz_fl--17" value="loadDatabase()" style="text;align=left;verticalAlign=top;spacingLeft=4;spacingRight=4;overflow=hidden;rotatable=0;points=[[0,0.5],[1,0.5]];portConstraint=eastwest;" parent="OjmmLSmr8yP9Vfqz_fl--12" vertex="1">
          <mxGeometry y="112" width="179" height="26" as="geometry" />
        </mxCell>
        <mxCell id="OjmmLSmr8yP9Vfqz_fl--18" value="saveDatabase()" style="text;align=left;verticalAlign=top;spacingLeft=4;spacingRight=4;overflow=hidden;rotatable=0;points=[[0,0.5],[1,0.5]];portConstraint=eastwest;" parent="OjmmLSmr8yP9Vfqz_fl--12" vertex="1">
          <mxGeometry y="138" width="179" height="26" as="geometry" />
        </mxCell>
        <mxCell id="OjmmLSmr8yP9Vfqz_fl--19" value="createDatabase()" style="text;align=left;verticalAlign=top;spacingLeft=4;spacingRight=4;overflow=hidden;rotatable=0;points=[[0,0.5],[1,0.5]];portConstraint=eastwest;" parent="OjmmLSmr8yP9Vfqz_fl--12" vertex="1">
          <mxGeometry y="164" width="179" height="26" as="geometry" />
        </mxCell>
        <mxCell id="BNh2f_qWjGJESjD_8qFb-3" value="unionTables(table1: Table, table2: Table): Table" style="text;align=left;verticalAlign=top;spacingLeft=4;spacingRight=4;overflow=hidden;rotatable=0;points=[[0,0.5],[1,0.5]];portConstraint=eastwest;whiteSpace=wrap;" vertex="1" parent="OjmmLSmr8yP9Vfqz_fl--12">
          <mxGeometry y="190" width="179" height="40" as="geometry" />
        </mxCell>
        <mxCell id="OjmmLSmr8yP9Vfqz_fl--34" style="edgeStyle=orthogonalEdgeStyle;rounded=0;orthogonalLoop=1;jettySize=auto;html=1;entryX=0.5;entryY=0;entryDx=0;entryDy=0;dashed=1;endArrow=openThin;endFill=0;exitX=0.002;exitY=0.065;exitDx=0;exitDy=0;exitPerimeter=0;" parent="1" source="OjmmLSmr8yP9Vfqz_fl--2" target="OjmmLSmr8yP9Vfqz_fl--12" edge="1">
          <mxGeometry relative="1" as="geometry">
            <mxPoint x="299" y="282" as="sourcePoint" />
            <mxPoint x="409" y="350" as="targetPoint" />
          </mxGeometry>
        </mxCell>
        <mxCell id="BNh2f_qWjGJESjD_8qFb-1" value="Case: tables union" style="text;html=1;align=center;verticalAlign=middle;resizable=0;points=[];autosize=1;strokeColor=none;fillColor=none;" vertex="1" parent="1">
          <mxGeometry x="25" y="20" width="120" height="30" as="geometry" />
        </mxCell>
      </root>
    </mxGraphModel>
  </diagram>
</mxfile>
